<svg width="33" height="17" viewBox="0 0 33 17" fill="none" xmlns="http://www.w3.org/2000/svg">
<path d="M9 0H24C28.965 0 33 3.81083 33 8.5C33 13.1892 28.965 17 24 17H9C4.035 17 0 13.1892 0 8.5C0 3.81083 4.035 0 9 0ZM9 14.1667H24C27.315 14.1667 30 11.6308 30 8.5C30 5.36917 27.315 2.83333 24 2.83333H9C5.685 2.83333 3 5.36917 3 8.5C3 11.6308 5.685 14.1667 9 14.1667ZM9 4.25C11.49 4.25 13.5 6.14833 13.5 8.5C13.5 10.8517 11.49 12.75 9 12.75C6.51 12.75 4.5 10.8517 4.5 8.5C4.5 6.14833 6.51 4.25 9 4.25Z" fill="#F4FEFD"/>
</svg>
