<svg width="33" height="17" viewBox="0 0 33 17" fill="none" xmlns="http://www.w3.org/2000/svg">
<path d="M24 0H9C4.035 0 0 3.81083 0 8.5C0 13.1892 4.035 17 9 17H24C28.965 17 33 13.1892 33 8.5C33 3.81083 28.965 0 24 0ZM24 14.1667H9C5.685 14.1667 3 11.6308 3 8.5C3 5.36917 5.685 2.83333 9 2.83333H24C27.315 2.83333 30 5.36917 30 8.5C30 11.6308 27.315 14.1667 24 14.1667ZM24 4.25C21.51 4.25 19.5 6.14833 19.5 8.5C19.5 10.8517 21.51 12.75 24 12.75C26.49 12.75 28.5 10.8517 28.5 8.5C28.5 6.14833 26.49 4.25 24 4.25Z" fill="#00337C"/>
</svg>
