<svg width="768" height="490" viewBox="0 0 768 490" fill="none" xmlns="http://www.w3.org/2000/svg">
<rect x="1" y="1" width="719" height="426" stroke="#03C988" stroke-width="2" stroke-dasharray="5 5"/>
<path fill-rule="evenodd" clip-rule="evenodd" d="M325.792 146V216.8C328.018 217.286 329.83 218.996 330.595 221.248H653.441V224.248H330.963C330.716 227.355 328.578 229.882 325.792 230.49V392H322.792V230.388C320.031 229.584 318 226.87 318 223.645C318 220.421 320.031 217.706 322.792 216.902V146H325.792Z" fill="#D9D9D9" fill-opacity="0.9"/>
<path d="M661.645 394.324C661.802 396.014 661.908 397.718 661.961 399.433L661.461 399.449C661.487 400.296 661.5 401.147 661.5 402C661.5 402.853 661.487 403.704 661.461 404.551L661.961 404.566C661.908 406.282 661.802 407.986 661.645 409.676L661.148 409.63C660.99 411.327 660.781 413.01 660.521 414.678L661.015 414.755C660.751 416.448 660.435 418.126 660.069 419.786L659.581 419.678C659.214 421.341 658.797 422.986 658.331 424.613L658.811 424.751C658.34 426.396 657.819 428.022 657.249 429.628L656.778 429.461C656.209 431.062 655.593 432.643 654.929 434.203L655.39 434.398C654.721 435.971 654.005 437.521 653.243 439.047L652.795 438.823C652.037 440.342 651.234 441.838 650.386 443.308L650.82 443.557C649.967 445.036 649.071 446.49 648.132 447.916L647.715 447.641C646.782 449.058 645.808 450.448 644.793 451.81L645.194 452.109C644.175 453.476 643.115 454.815 642.017 456.125L641.634 455.803C640.545 457.102 639.417 458.372 638.252 459.61L638.616 459.953C637.449 461.194 636.244 462.405 635.004 463.583L634.66 463.221C633.431 464.388 632.168 465.524 630.872 466.626L631.195 467.007C629.898 468.11 628.567 469.18 627.205 470.215L626.902 469.817C625.554 470.842 624.175 471.832 622.766 472.787L623.046 473.201C621.637 474.156 620.198 475.075 618.732 475.958L618.474 475.53C617.023 476.403 615.545 477.24 614.041 478.039L614.276 478.481C612.773 479.28 611.245 480.041 609.692 480.764L609.481 480.31C607.946 481.025 606.387 481.701 604.806 482.338L604.993 482.802C603.415 483.438 601.815 484.035 600.194 484.591L600.031 484.118C598.431 484.668 596.811 485.178 595.172 485.647L595.309 486.128C593.676 486.596 592.023 487.023 590.353 487.409L590.24 486.922C588.594 487.303 586.93 487.644 585.25 487.942L585.337 488.435C583.665 488.732 581.978 488.988 580.276 489.203L580.213 488.707C578.537 488.918 576.847 489.087 575.144 489.215L575.181 489.714C573.489 489.84 571.784 489.926 570.067 489.968L570.055 489.468C569.206 489.489 568.354 489.5 567.5 489.5C566.646 489.5 565.794 489.489 564.945 489.468L564.933 489.968C563.216 489.926 561.511 489.84 559.819 489.714L559.856 489.215C558.153 489.087 556.463 488.918 554.787 488.707L554.724 489.203C553.022 488.988 551.335 488.732 549.663 488.435L549.75 487.942C548.07 487.644 546.406 487.303 544.76 486.922L544.647 487.409C542.977 487.023 541.324 486.596 539.691 486.128L539.828 485.647C538.189 485.178 536.569 484.668 534.969 484.118L534.806 484.591C533.185 484.035 531.585 483.438 530.007 482.802L530.194 482.338C528.613 481.701 527.054 481.025 525.519 480.31L525.308 480.764C523.755 480.041 522.227 479.28 520.724 478.481L520.959 478.039C519.455 477.24 517.977 476.403 516.526 475.53L516.268 475.958C514.802 475.075 513.363 474.156 511.954 473.201L512.234 472.787C510.825 471.832 509.446 470.842 508.098 469.817L507.795 470.215C506.433 469.18 505.102 468.11 503.805 467.007L504.128 466.626C502.832 465.524 501.569 464.388 500.34 463.221L499.996 463.583C498.756 462.405 497.551 461.194 496.384 459.953L496.748 459.61C495.583 458.372 494.455 457.102 493.366 455.803L492.983 456.125C491.885 454.815 490.825 453.476 489.806 452.109L490.207 451.81C489.192 450.448 488.218 449.058 487.285 447.641L486.868 447.916C485.929 446.49 485.033 445.036 484.18 443.557L484.614 443.308C483.766 441.838 482.963 440.342 482.205 438.824L481.757 439.047C480.995 437.521 480.279 435.971 479.61 434.398L480.071 434.203C479.407 432.643 478.791 431.062 478.222 429.461L477.751 429.628C477.181 428.022 476.66 426.396 476.189 424.751L476.669 424.613C476.203 422.986 475.786 421.341 475.419 419.678L474.931 419.786C474.565 418.126 474.249 416.448 473.985 414.755L474.479 414.678C474.219 413.01 474.01 411.327 473.852 409.63L473.355 409.676C473.198 407.986 473.092 406.282 473.039 404.567L473.539 404.551C473.513 403.704 473.5 402.853 473.5 402C473.5 401.147 473.513 400.296 473.539 399.449L473.039 399.434C473.092 397.718 473.198 396.014 473.355 394.324L473.852 394.37C474.01 392.673 474.219 390.99 474.479 389.322L473.985 389.245C474.249 387.552 474.565 385.874 474.931 384.214L475.419 384.322C475.786 382.659 476.203 381.014 476.669 379.387L476.189 379.249C476.66 377.604 477.181 375.978 477.751 374.372L478.222 374.539C478.791 372.938 479.407 371.357 480.071 369.797L479.61 369.602C480.279 368.029 480.995 366.479 481.757 364.953L482.205 365.177C482.963 363.658 483.766 362.162 484.614 360.692L484.18 360.443C485.033 358.964 485.929 357.51 486.868 356.084L487.285 356.359C488.218 354.942 489.192 353.552 490.207 352.19L489.806 351.891C490.825 350.524 491.885 349.185 492.983 347.875L493.366 348.197C494.455 346.898 495.583 345.628 496.748 344.39L496.384 344.047C497.551 342.806 498.756 341.595 499.996 340.417L500.34 340.779C501.569 339.612 502.832 338.476 504.128 337.374L503.805 336.993C505.102 335.89 506.433 334.82 507.795 333.785L508.098 334.183C509.446 333.158 510.825 332.168 512.234 331.213L511.954 330.799C513.363 329.844 514.802 328.925 516.268 328.042L516.526 328.47C517.977 327.597 519.455 326.76 520.959 325.961L520.724 325.519C522.227 324.72 523.755 323.959 525.308 323.236L525.519 323.69C527.054 322.975 528.613 322.299 530.194 321.662L530.007 321.198C531.585 320.562 533.185 319.965 534.806 319.409L534.969 319.882C536.569 319.332 538.189 318.822 539.828 318.353L539.691 317.872C541.324 317.404 542.977 316.977 544.647 316.591L544.76 317.078C546.406 316.697 548.07 316.356 549.75 316.058L549.663 315.565C551.335 315.268 553.022 315.012 554.724 314.797L554.787 315.293C556.463 315.082 558.153 314.913 559.856 314.785L559.819 314.287C561.511 314.16 563.216 314.074 564.933 314.032L564.945 314.532C565.794 314.511 566.646 314.5 567.5 314.5C568.354 314.5 569.206 314.511 570.055 314.532L570.067 314.032C571.784 314.074 573.489 314.16 575.181 314.287L575.144 314.785C576.847 314.913 578.537 315.082 580.213 315.293L580.276 314.797C581.978 315.012 583.665 315.268 585.337 315.565L585.25 316.058C586.93 316.356 588.594 316.697 590.24 317.078L590.353 316.591C592.023 316.977 593.676 317.404 595.309 317.872L595.172 318.353C596.811 318.822 598.431 319.332 600.031 319.882L600.194 319.409C601.815 319.965 603.415 320.562 604.993 321.198L604.806 321.662C606.387 322.299 607.946 322.975 609.481 323.69L609.692 323.236C611.245 323.959 612.773 324.72 614.276 325.519L614.041 325.961C615.545 326.76 617.023 327.597 618.474 328.47L618.732 328.042C620.198 328.925 621.637 329.844 623.046 330.799L622.766 331.213C624.175 332.168 625.554 333.158 626.902 334.183L627.205 333.785C628.567 334.82 629.898 335.89 631.195 336.993L630.872 337.374C632.168 338.476 633.431 339.612 634.66 340.779L635.004 340.417C636.244 341.595 637.449 342.806 638.616 344.047L638.252 344.39C639.417 345.628 640.545 346.898 641.634 348.196L642.017 347.875C643.115 349.185 644.175 350.524 645.194 351.891L644.793 352.19C645.808 353.552 646.782 354.942 647.715 356.359L648.132 356.084C649.071 357.51 649.967 358.964 650.82 360.443L650.386 360.692C651.234 362.162 652.037 363.658 652.795 365.176L653.243 364.953C654.005 366.479 654.721 368.029 655.39 369.602L654.929 369.797C655.593 371.357 656.209 372.938 656.778 374.539L657.249 374.372C657.819 375.978 658.34 377.604 658.811 379.249L658.331 379.387C658.797 381.014 659.214 382.659 659.581 384.322L660.069 384.214C660.435 385.874 660.751 387.552 661.015 389.245L660.521 389.322C660.781 390.99 660.99 392.673 661.148 394.37L661.645 394.324Z" fill="#F6F1F1" stroke="#26A77C" stroke-dasharray="5 5"/>
<path d="M641.246 243.037C641.486 243.175 641.791 243.093 641.929 242.854L643 241L644.07 242.854C644.209 243.093 644.514 243.175 644.753 243.037L647.261 247.379C647.021 247.517 646.939 247.823 647.077 248.062L650.085 253.271C650.223 253.51 650.528 253.592 650.768 253.454L653.275 257.796C653.035 257.934 652.953 258.24 653.092 258.479L656.099 263.687C656.237 263.927 656.542 264.009 656.782 263.87L659.289 268.213C659.049 268.351 658.968 268.657 659.106 268.896L662.113 274.104C662.251 274.343 662.557 274.425 662.796 274.287L665.303 278.629C665.064 278.768 664.982 279.073 665.12 279.312L668.127 284.521C668.265 284.76 668.571 284.842 668.81 284.704L671.317 289.046C671.078 289.184 670.996 289.49 671.134 289.729L674.141 294.937C674.279 295.177 674.585 295.259 674.824 295.12L677.331 299.463C677.092 299.601 677.01 299.907 677.148 300.146L680.155 305.354C680.293 305.593 680.599 305.675 680.838 305.537L683.345 309.879C683.106 310.018 683.024 310.323 683.162 310.562L686.169 315.771C686.307 316.01 686.613 316.092 686.852 315.954L689.359 320.296C689.12 320.434 689.038 320.74 689.176 320.979L692.183 326.187C692.321 326.427 692.627 326.509 692.866 326.37L695.373 330.713C695.134 330.851 695.052 331.157 695.19 331.396L698.197 336.604C698.335 336.843 698.641 336.925 698.88 336.787L701.387 341.129C701.148 341.268 701.066 341.573 701.204 341.812L704.211 347.021C704.349 347.26 704.655 347.342 704.894 347.204L707.401 351.546C707.162 351.684 707.08 351.99 707.218 352.229L710.225 357.437C710.363 357.677 710.669 357.759 710.908 357.621L713.415 361.963C713.176 362.101 713.094 362.407 713.232 362.646L716.239 367.854C716.377 368.093 716.683 368.175 716.922 368.037L719.429 372.379C719.19 372.518 719.108 372.823 719.246 373.062L722.253 378.271C722.391 378.51 722.697 378.592 722.936 378.454L725.443 382.796C725.204 382.934 725.122 383.24 725.26 383.479L728.267 388.688C728.405 388.927 728.711 389.009 728.95 388.871L731.457 393.213C731.218 393.351 731.136 393.657 731.274 393.896L734.281 399.104C734.42 399.343 734.725 399.425 734.964 399.287L737.472 403.629C737.232 403.768 737.15 404.073 737.289 404.312L740.296 409.521C740.434 409.76 740.739 409.842 740.979 409.704L743.486 414.046C743.246 414.184 743.165 414.49 743.303 414.729L746.31 419.938C746.448 420.177 746.753 420.259 746.993 420.121L749.5 424.463C749.261 424.601 749.179 424.907 749.317 425.146L750.387 427H748.246C747.97 427 747.746 427.224 747.746 427.5H742.732C742.732 427.224 742.508 427 742.232 427H736.218C735.942 427 735.718 427.224 735.718 427.5H730.704C730.704 427.224 730.48 427 730.204 427H724.19C723.914 427 723.69 427.224 723.69 427.5H718.676C718.676 427.224 718.452 427 718.176 427H712.162C711.886 427 711.662 427.224 711.662 427.5H706.648C706.648 427.224 706.424 427 706.148 427H700.134C699.858 427 699.634 427.224 699.634 427.5H694.62C694.62 427.224 694.396 427 694.12 427H688.106C687.829 427 687.606 427.224 687.606 427.5H682.591C682.591 427.224 682.368 427 682.091 427H676.077C675.801 427 675.577 427.224 675.577 427.5H670.563C670.563 427.224 670.339 427 670.063 427H664.049C663.773 427 663.549 427.224 663.549 427.5H658.535C658.535 427.224 658.311 427 658.035 427H652.021C651.745 427 651.521 427.224 651.521 427.5H646.507C646.507 427.224 646.283 427 646.007 427H639.993C639.717 427 639.493 427.224 639.493 427.5H634.479C634.479 427.224 634.255 427 633.979 427H627.965C627.689 427 627.465 427.224 627.465 427.5H622.451C622.451 427.224 622.227 427 621.951 427H615.937C615.661 427 615.437 427.224 615.437 427.5H610.423C610.423 427.224 610.199 427 609.923 427H603.909C603.632 427 603.409 427.224 603.409 427.5H598.395C598.395 427.224 598.171 427 597.895 427H591.88C591.604 427 591.38 427.224 591.38 427.5H586.366C586.366 427.224 586.143 427 585.866 427H579.852C579.576 427 579.352 427.224 579.352 427.5H574.338C574.338 427.224 574.114 427 573.838 427H567.824C567.548 427 567.324 427.224 567.324 427.5H562.31C562.31 427.224 562.086 427 561.81 427H555.796C555.52 427 555.296 427.224 555.296 427.5H550.282C550.282 427.224 550.058 427 549.782 427H543.768C543.492 427 543.268 427.224 543.268 427.5H538.254C538.254 427.224 538.03 427 537.754 427H535.613L536.683 425.146C536.821 424.907 536.739 424.601 536.5 424.463L539.007 420.121C539.246 420.259 539.552 420.177 539.69 419.938L542.697 414.729C542.835 414.49 542.754 414.184 542.514 414.046L545.021 409.704C545.261 409.842 545.566 409.76 545.704 409.521L548.711 404.313C548.85 404.073 548.768 403.768 548.528 403.63L551.035 399.287C551.275 399.425 551.58 399.343 551.718 399.104L554.726 393.896C554.864 393.657 554.782 393.351 554.543 393.213L557.05 388.871C557.289 389.009 557.594 388.927 557.733 388.688L560.74 383.479C560.878 383.24 560.796 382.934 560.557 382.796L563.064 378.454C563.303 378.592 563.609 378.51 563.747 378.271L566.754 373.063C566.892 372.823 566.81 372.518 566.571 372.38L569.078 368.037C569.317 368.175 569.623 368.093 569.761 367.854L572.768 362.646C572.906 362.407 572.824 362.101 572.585 361.963L575.092 357.621C575.331 357.759 575.637 357.677 575.775 357.438L578.782 352.229C578.92 351.99 578.838 351.684 578.599 351.546L581.106 347.204C581.345 347.342 581.651 347.26 581.789 347.021L584.796 341.813C584.934 341.573 584.852 341.268 584.613 341.13L587.12 336.787C587.359 336.925 587.665 336.843 587.803 336.604L590.81 331.396C590.948 331.157 590.866 330.851 590.627 330.713L593.134 326.371C593.373 326.509 593.679 326.427 593.817 326.188L596.824 320.979C596.962 320.74 596.88 320.434 596.641 320.296L599.148 315.954C599.387 316.092 599.693 316.01 599.831 315.771L602.838 310.563C602.976 310.323 602.894 310.018 602.655 309.879L605.162 305.537C605.401 305.675 605.707 305.593 605.845 305.354L608.852 300.146C608.99 299.907 608.908 299.601 608.669 299.463L611.176 295.121C611.415 295.259 611.721 295.177 611.859 294.938L614.866 289.729C615.004 289.49 614.922 289.184 614.683 289.046L617.19 284.704C617.429 284.842 617.735 284.76 617.873 284.521L620.88 279.312C621.018 279.073 620.936 278.768 620.697 278.629L623.204 274.287C623.443 274.425 623.749 274.343 623.887 274.104L626.894 268.896C627.032 268.657 626.95 268.351 626.711 268.213L629.218 263.871C629.457 264.009 629.763 263.927 629.901 263.688L632.908 258.479C633.046 258.24 632.965 257.934 632.725 257.796L635.232 253.454C635.472 253.592 635.777 253.51 635.915 253.271L638.922 248.062C639.061 247.823 638.979 247.518 638.739 247.379L641.246 243.037Z" fill="#F6F1F1" stroke="#03C988" stroke-linecap="round" stroke-linejoin="round" stroke-dasharray="6 6"/>
<path d="M661.645 394.324C661.802 396.014 661.908 397.718 661.961 399.433L661.461 399.449C661.487 400.296 661.5 401.147 661.5 402C661.5 402.853 661.487 403.704 661.461 404.551L661.961 404.566C661.908 406.282 661.802 407.986 661.645 409.676L661.148 409.63C660.99 411.327 660.781 413.01 660.521 414.678L661.015 414.755C660.751 416.448 660.435 418.126 660.069 419.786L659.581 419.678C659.214 421.341 658.797 422.986 658.331 424.613L658.811 424.751C658.34 426.396 657.819 428.022 657.249 429.628L656.778 429.461C656.209 431.062 655.593 432.643 654.929 434.203L655.39 434.398C654.721 435.971 654.005 437.521 653.243 439.047L652.795 438.823C652.037 440.342 651.234 441.838 650.386 443.308L650.82 443.557C649.967 445.036 649.071 446.49 648.132 447.916L647.715 447.641C646.782 449.058 645.808 450.448 644.793 451.81L645.194 452.109C644.175 453.476 643.115 454.815 642.017 456.125L641.634 455.803C640.545 457.102 639.417 458.372 638.252 459.61L638.616 459.953C637.449 461.194 636.244 462.405 635.004 463.583L634.66 463.221C633.431 464.388 632.168 465.524 630.872 466.626L631.195 467.007C629.898 468.11 628.567 469.18 627.205 470.215L626.902 469.817C625.554 470.842 624.175 471.832 622.766 472.787L623.046 473.201C621.637 474.156 620.198 475.075 618.732 475.958L618.474 475.53C617.023 476.403 615.545 477.24 614.041 478.039L614.276 478.481C612.773 479.28 611.245 480.041 609.692 480.764L609.481 480.31C607.946 481.025 606.387 481.701 604.806 482.338L604.993 482.802C603.415 483.438 601.815 484.035 600.194 484.591L600.031 484.118C598.431 484.668 596.811 485.178 595.172 485.647L595.309 486.128C593.676 486.596 592.023 487.023 590.353 487.409L590.24 486.922C588.594 487.303 586.93 487.644 585.25 487.942L585.337 488.435C583.665 488.732 581.978 488.988 580.276 489.203L580.213 488.707C578.537 488.918 576.847 489.087 575.144 489.215L575.181 489.714C573.489 489.84 571.784 489.926 570.067 489.968L570.055 489.468C569.206 489.489 568.354 489.5 567.5 489.5C566.646 489.5 565.794 489.489 564.945 489.468L564.933 489.968C563.216 489.926 561.511 489.84 559.819 489.714L559.856 489.215C558.153 489.087 556.463 488.918 554.787 488.707L554.724 489.203C553.022 488.988 551.335 488.732 549.663 488.435L549.75 487.942C548.07 487.644 546.406 487.303 544.76 486.922L544.647 487.409C542.977 487.023 541.324 486.596 539.691 486.128L539.828 485.647C538.189 485.178 536.569 484.668 534.969 484.118L534.806 484.591C533.185 484.035 531.585 483.438 530.007 482.802L530.194 482.338C528.613 481.701 527.054 481.025 525.519 480.31L525.308 480.764C523.755 480.041 522.227 479.28 520.724 478.481L520.959 478.039C519.455 477.24 517.977 476.403 516.526 475.53L516.268 475.958C514.802 475.075 513.363 474.156 511.954 473.201L512.234 472.787C510.825 471.832 509.446 470.842 508.098 469.817L507.795 470.215C506.433 469.18 505.102 468.11 503.805 467.007L504.128 466.626C502.832 465.524 501.569 464.388 500.34 463.221L499.996 463.583C498.756 462.405 497.551 461.194 496.384 459.953L496.748 459.61C495.583 458.372 494.455 457.102 493.366 455.803L492.983 456.125C491.885 454.815 490.825 453.476 489.806 452.109L490.207 451.81C489.192 450.448 488.218 449.058 487.285 447.641L486.868 447.916C485.929 446.49 485.033 445.036 484.18 443.557L484.614 443.308C483.766 441.838 482.963 440.342 482.205 438.824L481.757 439.047C480.995 437.521 480.279 435.971 479.61 434.398L480.071 434.203C479.407 432.643 478.791 431.062 478.222 429.461L477.751 429.628C477.181 428.022 476.66 426.396 476.189 424.751L476.669 424.613C476.203 422.986 475.786 421.341 475.419 419.678L474.931 419.786C474.565 418.126 474.249 416.448 473.985 414.755L474.479 414.678C474.219 413.01 474.01 411.327 473.852 409.63L473.355 409.676C473.198 407.986 473.092 406.282 473.039 404.567L473.539 404.551C473.513 403.704 473.5 402.853 473.5 402C473.5 401.147 473.513 400.296 473.539 399.449L473.039 399.434C473.092 397.718 473.198 396.014 473.355 394.324L473.852 394.37C474.01 392.673 474.219 390.99 474.479 389.322L473.985 389.245C474.249 387.552 474.565 385.874 474.931 384.214L475.419 384.322C475.786 382.659 476.203 381.014 476.669 379.387L476.189 379.249C476.66 377.604 477.181 375.978 477.751 374.372L478.222 374.539C478.791 372.938 479.407 371.357 480.071 369.797L479.61 369.602C480.279 368.029 480.995 366.479 481.757 364.953L482.205 365.177C482.963 363.658 483.766 362.162 484.614 360.692L484.18 360.443C485.033 358.964 485.929 357.51 486.868 356.084L487.285 356.359C488.218 354.942 489.192 353.552 490.207 352.19L489.806 351.891C490.825 350.524 491.885 349.185 492.983 347.875L493.366 348.197C494.455 346.898 495.583 345.628 496.748 344.39L496.384 344.047C497.551 342.806 498.756 341.595 499.996 340.417L500.34 340.779C501.569 339.612 502.832 338.476 504.128 337.374L503.805 336.993C505.102 335.89 506.433 334.82 507.795 333.785L508.098 334.183C509.446 333.158 510.825 332.168 512.234 331.213L511.954 330.799C513.363 329.844 514.802 328.925 516.268 328.042L516.526 328.47C517.977 327.597 519.455 326.76 520.959 325.961L520.724 325.519C522.227 324.72 523.755 323.959 525.308 323.236L525.519 323.69C527.054 322.975 528.613 322.299 530.194 321.662L530.007 321.198C531.585 320.562 533.185 319.965 534.806 319.409L534.969 319.882C536.569 319.332 538.189 318.822 539.828 318.353L539.691 317.872C541.324 317.404 542.977 316.977 544.647 316.591L544.76 317.078C546.406 316.697 548.07 316.356 549.75 316.058L549.663 315.565C551.335 315.268 553.022 315.012 554.724 314.797L554.787 315.293C556.463 315.082 558.153 314.913 559.856 314.785L559.819 314.287C561.511 314.16 563.216 314.074 564.933 314.032L564.945 314.532C565.794 314.511 566.646 314.5 567.5 314.5C568.354 314.5 569.206 314.511 570.055 314.532L570.067 314.032C571.784 314.074 573.489 314.16 575.181 314.287L575.144 314.785C576.847 314.913 578.537 315.082 580.213 315.293L580.276 314.797C581.978 315.012 583.665 315.268 585.337 315.565L585.25 316.058C586.93 316.356 588.594 316.697 590.24 317.078L590.353 316.591C592.023 316.977 593.676 317.404 595.309 317.872L595.172 318.353C596.811 318.822 598.431 319.332 600.031 319.882L600.194 319.409C601.815 319.965 603.415 320.562 604.993 321.198L604.806 321.662C606.387 322.299 607.946 322.975 609.481 323.69L609.692 323.236C611.245 323.959 612.773 324.72 614.276 325.519L614.041 325.961C615.545 326.76 617.023 327.597 618.474 328.47L618.732 328.042C620.198 328.925 621.637 329.844 623.046 330.799L622.766 331.213C624.175 332.168 625.554 333.158 626.902 334.183L627.205 333.785C628.567 334.82 629.898 335.89 631.195 336.993L630.872 337.374C632.168 338.476 633.431 339.612 634.66 340.779L635.004 340.417C636.244 341.595 637.449 342.806 638.616 344.047L638.252 344.39C639.417 345.628 640.545 346.898 641.634 348.196L642.017 347.875C643.115 349.185 644.175 350.524 645.194 351.891L644.793 352.19C645.808 353.552 646.782 354.942 647.715 356.359L648.132 356.084C649.071 357.51 649.967 358.964 650.82 360.443L650.386 360.692C651.234 362.162 652.037 363.658 652.795 365.176L653.243 364.953C654.005 366.479 654.721 368.029 655.39 369.602L654.929 369.797C655.593 371.357 656.209 372.938 656.778 374.539L657.249 374.372C657.819 375.978 658.34 377.604 658.811 379.249L658.331 379.387C658.797 381.014 659.214 382.659 659.581 384.322L660.069 384.214C660.435 385.874 660.751 387.552 661.015 389.245L660.521 389.322C660.781 390.99 660.99 392.673 661.148 394.37L661.645 394.324Z" stroke="#26A77C" stroke-dasharray="5 5"/>
<ellipse cx="548.5" cy="392" rx="94.5" ry="88" fill="#04CF8C" fill-opacity="0.3"/>
<path d="M609 216L717.253 403.5H500.747L609 216Z" fill="#A2FF86" fill-opacity="0.4"/>
<path d="M641.246 243.037C641.486 243.175 641.791 243.093 641.929 242.854L643 241L644.07 242.854C644.209 243.093 644.514 243.175 644.753 243.037L647.261 247.379C647.021 247.517 646.939 247.823 647.077 248.062L650.085 253.271C650.223 253.51 650.528 253.592 650.768 253.454L653.275 257.796C653.035 257.934 652.953 258.24 653.092 258.479L656.099 263.687C656.237 263.927 656.542 264.009 656.782 263.87L659.289 268.213C659.049 268.351 658.968 268.657 659.106 268.896L662.113 274.104C662.251 274.343 662.557 274.425 662.796 274.287L665.303 278.629C665.064 278.768 664.982 279.073 665.12 279.312L668.127 284.521C668.265 284.76 668.571 284.842 668.81 284.704L671.317 289.046C671.078 289.184 670.996 289.49 671.134 289.729L674.141 294.937C674.279 295.177 674.585 295.259 674.824 295.12L677.331 299.463C677.092 299.601 677.01 299.907 677.148 300.146L680.155 305.354C680.293 305.593 680.599 305.675 680.838 305.537L683.345 309.879C683.106 310.018 683.024 310.323 683.162 310.562L686.169 315.771C686.307 316.01 686.613 316.092 686.852 315.954L689.359 320.296C689.12 320.434 689.038 320.74 689.176 320.979L692.183 326.187C692.321 326.427 692.627 326.509 692.866 326.37L695.373 330.713C695.134 330.851 695.052 331.157 695.19 331.396L698.197 336.604C698.335 336.843 698.641 336.925 698.88 336.787L701.387 341.129C701.148 341.268 701.066 341.573 701.204 341.812L704.211 347.021C704.349 347.26 704.655 347.342 704.894 347.204L707.401 351.546C707.162 351.684 707.08 351.99 707.218 352.229L710.225 357.437C710.363 357.677 710.669 357.759 710.908 357.621L713.415 361.963C713.176 362.101 713.094 362.407 713.232 362.646L716.239 367.854C716.377 368.093 716.683 368.175 716.922 368.037L719.429 372.379C719.19 372.518 719.108 372.823 719.246 373.062L722.253 378.271C722.391 378.51 722.697 378.592 722.936 378.454L725.443 382.796C725.204 382.934 725.122 383.24 725.26 383.479L728.267 388.688C728.405 388.927 728.711 389.009 728.95 388.871L731.457 393.213C731.218 393.351 731.136 393.657 731.274 393.896L734.281 399.104C734.42 399.343 734.725 399.425 734.964 399.287L737.472 403.629C737.232 403.768 737.15 404.073 737.289 404.312L740.296 409.521C740.434 409.76 740.739 409.842 740.979 409.704L743.486 414.046C743.246 414.184 743.165 414.49 743.303 414.729L746.31 419.938C746.448 420.177 746.753 420.259 746.993 420.121L749.5 424.463C749.261 424.601 749.179 424.907 749.317 425.146L750.387 427H748.246C747.97 427 747.746 427.224 747.746 427.5H742.732C742.732 427.224 742.508 427 742.232 427H736.218C735.942 427 735.718 427.224 735.718 427.5H730.704C730.704 427.224 730.48 427 730.204 427H724.19C723.914 427 723.69 427.224 723.69 427.5H718.676C718.676 427.224 718.452 427 718.176 427H712.162C711.886 427 711.662 427.224 711.662 427.5H706.648C706.648 427.224 706.424 427 706.148 427H700.134C699.858 427 699.634 427.224 699.634 427.5H694.62C694.62 427.224 694.396 427 694.12 427H688.106C687.829 427 687.606 427.224 687.606 427.5H682.591C682.591 427.224 682.368 427 682.091 427H676.077C675.801 427 675.577 427.224 675.577 427.5H670.563C670.563 427.224 670.339 427 670.063 427H664.049C663.773 427 663.549 427.224 663.549 427.5H658.535C658.535 427.224 658.311 427 658.035 427H652.021C651.745 427 651.521 427.224 651.521 427.5H646.507C646.507 427.224 646.283 427 646.007 427H639.993C639.717 427 639.493 427.224 639.493 427.5H634.479C634.479 427.224 634.255 427 633.979 427H627.965C627.689 427 627.465 427.224 627.465 427.5H622.451C622.451 427.224 622.227 427 621.951 427H615.937C615.661 427 615.437 427.224 615.437 427.5H610.423C610.423 427.224 610.199 427 609.923 427H603.909C603.632 427 603.409 427.224 603.409 427.5H598.395C598.395 427.224 598.171 427 597.895 427H591.88C591.604 427 591.38 427.224 591.38 427.5H586.366C586.366 427.224 586.143 427 585.866 427H579.852C579.576 427 579.352 427.224 579.352 427.5H574.338C574.338 427.224 574.114 427 573.838 427H567.824C567.548 427 567.324 427.224 567.324 427.5H562.31C562.31 427.224 562.086 427 561.81 427H555.796C555.52 427 555.296 427.224 555.296 427.5H550.282C550.282 427.224 550.058 427 549.782 427H543.768C543.492 427 543.268 427.224 543.268 427.5H538.254C538.254 427.224 538.03 427 537.754 427H535.613L536.683 425.146C536.821 424.907 536.739 424.601 536.5 424.463L539.007 420.121C539.246 420.259 539.552 420.177 539.69 419.938L542.697 414.729C542.835 414.49 542.754 414.184 542.514 414.046L545.021 409.704C545.261 409.842 545.566 409.76 545.704 409.521L548.711 404.313C548.85 404.073 548.768 403.768 548.528 403.63L551.035 399.287C551.275 399.425 551.58 399.343 551.718 399.104L554.726 393.896C554.864 393.657 554.782 393.351 554.543 393.213L557.05 388.871C557.289 389.009 557.594 388.927 557.733 388.688L560.74 383.479C560.878 383.24 560.796 382.934 560.557 382.796L563.064 378.454C563.303 378.592 563.609 378.51 563.747 378.271L566.754 373.063C566.892 372.823 566.81 372.518 566.571 372.38L569.078 368.037C569.317 368.175 569.623 368.093 569.761 367.854L572.768 362.646C572.906 362.407 572.824 362.101 572.585 361.963L575.092 357.621C575.331 357.759 575.637 357.677 575.775 357.438L578.782 352.229C578.92 351.99 578.838 351.684 578.599 351.546L581.106 347.204C581.345 347.342 581.651 347.26 581.789 347.021L584.796 341.813C584.934 341.573 584.852 341.268 584.613 341.13L587.12 336.787C587.359 336.925 587.665 336.843 587.803 336.604L590.81 331.396C590.948 331.157 590.866 330.851 590.627 330.713L593.134 326.371C593.373 326.509 593.679 326.427 593.817 326.188L596.824 320.979C596.962 320.74 596.88 320.434 596.641 320.296L599.148 315.954C599.387 316.092 599.693 316.01 599.831 315.771L602.838 310.563C602.976 310.323 602.894 310.018 602.655 309.879L605.162 305.537C605.401 305.675 605.707 305.593 605.845 305.354L608.852 300.146C608.99 299.907 608.908 299.601 608.669 299.463L611.176 295.121C611.415 295.259 611.721 295.177 611.859 294.938L614.866 289.729C615.004 289.49 614.922 289.184 614.683 289.046L617.19 284.704C617.429 284.842 617.735 284.76 617.873 284.521L620.88 279.312C621.018 279.073 620.936 278.768 620.697 278.629L623.204 274.287C623.443 274.425 623.749 274.343 623.887 274.104L626.894 268.896C627.032 268.657 626.95 268.351 626.711 268.213L629.218 263.871C629.457 264.009 629.763 263.927 629.901 263.688L632.908 258.479C633.046 258.24 632.965 257.934 632.725 257.796L635.232 253.454C635.472 253.592 635.777 253.51 635.915 253.271L638.922 248.062C639.061 247.823 638.979 247.518 638.739 247.379L641.246 243.037Z" stroke="#03C988" stroke-linecap="round" stroke-linejoin="round" stroke-dasharray="6 6"/>
</svg>
